HIERARCHY
ROOT Hips
{
	OFFSET 0.000000 0.000000 0.000000 
	CHANNELS 6 Xposition Yposition Zposition Zrotation Yrotation Xrotation
	JOINT LeftUpLeg
	{
		OFFSET 1.363060 -1.794630 0.839290 
		CHANNELS 3 Zrotation Yrotation Xrotation
		JOINT LeftLeg
		{
			OFFSET 2.448110 -6.726130 0.000000 
			CHANNELS 3 Zrotation Yrotation Xrotation
			JOINT LeftFoot
			{
				OFFSET 2.562200 -7.039590 0.000000 
				CHANNELS 3 Zrotation Yrotation Xrotation
				JOINT LeftToeBase
				{
					OFFSET 0.157640 -0.433110 2.322550 
					CHANNELS 3 Zrotation Yrotation Xrotation
					End Site
					{
						OFFSET 0.000000 0.000000 0.000000 
					}
				}
			}
		}
	}
	JOINT RightUpLeg
	{
		OFFSET -1.305520 -1.794630 0.839290 
		CHANNELS 3 Zrotation Yrotation Xrotation
		JOINT RightLeg
		{
			OFFSET -2.542530 -6.985550 0.000000 
			CHANNELS 3 Zrotation Yrotation Xrotation
			JOINT RightFoot
			{
				OFFSET -2.568260 -7.056230 0.000000 
				CHANNELS 3 Zrotation Yrotation Xrotation
				JOINT RightToeBase
				{
					OFFSET -0.164730 -0.452590 2.363150 
					CHANNELS 3 Zrotation Yrotation Xrotation
					End Site
					{
						OFFSET 0.000000 0.000000 0.000000 
					}
				}
			}
		}
	}
	JOINT Spine
	{
		OFFSET 0.028270 2.035590 -0.193380 
		CHANNELS 3 Zrotation Yrotation Xrotation
		JOINT Spine1
		{
			OFFSET 0.056720 2.048850 -0.042750 
			CHANNELS 3 Zrotation Yrotation Xrotation
			JOINT Neck1
			{
				OFFSET -0.054170 1.746240 0.172020 
				CHANNELS 3 Zrotation Yrotation Xrotation
				JOINT Head
				{
					OFFSET 0.104070 1.761360 -0.123970 
					CHANNELS 3 Zrotation Yrotation Xrotation
					End Site
					{
						OFFSET 0.000000 0.000000 0.000000 
					}
				}
			}
			JOINT LeftArm
			{
				OFFSET 3.362410 1.200890 -0.311210 
				CHANNELS 3 Zrotation Yrotation Xrotation
				JOINT LeftForeArm
				{
					OFFSET 4.983000 -0.000000 -0.000000 
					CHANNELS 3 Zrotation Yrotation Xrotation
					JOINT LeftHand
					{
						OFFSET 3.483560 -0.000000 -0.000000 
						CHANNELS 3 Zrotation Yrotation Xrotation
						JOINT LeftHandIndex1
						{
							OFFSET 0.715260 -0.000000 -0.000000 
							CHANNELS 3 Zrotation Yrotation Xrotation
							End Site
							{
								OFFSET 0.000000 0.000000 0.000000 
							}
						}
					}
				}
			}
			JOINT RightArm
			{
				OFFSET -3.136600 1.374050 -0.404650 
				CHANNELS 3 Zrotation Yrotation Xrotation
				JOINT RightForeArm
				{
					OFFSET -5.241900 -0.000000 -0.000000 
					CHANNELS 3 Zrotation Yrotation Xrotation
					JOINT RightHand
					{
						OFFSET -3.444170 -0.000000 -0.000000 
						CHANNELS 3 Zrotation Yrotation Xrotation
						JOINT RightHandIndex1
						{
							OFFSET -0.622530 -0.000000 -0.000000 
							CHANNELS 3 Zrotation Yrotation Xrotation
							End Site
							{
								OFFSET 0.000000 0.000000 0.000000 
							}
						}
					}
				}
			}
		}
	}
}
MOTION
Frames: 12
Frame Time: 0.041667
10.136518 17.733459 -0.136521 94.038196 -88.706724 -93.824957 -1.954558 2.796642 -10.789055 2.039621 12.361167 30.418547 -10.690753 25.397058 -1.326329 3.219800 -11.042600 -32.423800 2.002647 1.822888 -11.597024 -3.158187 -14.042336 37.270943 6.201799 -18.652031 -5.661681 -0.273100 3.361500 -9.287000 -0.292593 0.832120 0.092398 -1.923974 0.291021 9.444273 4.031405 -2.435483 30.848729 1.058900 -1.114000 10.147900 -71.361302 -2.442708 33.888274 39.001418 -45.370858 -20.962588 1.023954 0.759141 18.956967 -7.125000 0.000000 0.000000 71.526212 0.237848 33.656238 -40.410924 46.638454 -20.906331 1.820352 -0.682708 0.625460 7.125000 0.000000 0.000000 
10.132204 17.731910 -0.135857 93.201518 -88.523720 -92.998064 -2.145836 2.927664 -10.791859 2.018810 12.350561 30.365030 -10.648785 25.329447 -1.261664 3.247500 -11.085300 -32.568100 1.789564 1.674837 -11.633935 -3.188127 -14.044141 37.336689 6.059679 -18.303812 -5.492829 -0.240800 3.157600 -8.717900 -0.338625 0.872786 0.083271 -1.945303 0.306690 9.435826 4.114005 -2.515587 30.752462 1.095700 -1.157900 10.038900 -71.429731 -2.598079 33.869812 38.738869 -45.222678 -20.759124 1.031570 0.763758 18.951287 -7.125000 0.000000 0.000000 71.453787 0.568720 31.084484 -40.389907 46.489414 -21.061626 1.941788 -0.509549 10.763978 7.125000 0.000000 0.000000 
10.131982 17.731356 -0.136853 93.698178 -88.521467 -93.500925 -2.146473 2.915411 -10.781416 2.014846 12.347068 30.357943 -10.661195 25.344264 -1.318111 3.205900 -11.021200 -32.351300 1.792555 1.744318 -11.615804 -3.188238 -14.049229 37.351215 6.052955 -18.287128 -5.526075 -0.220500 3.022600 -8.341600 -0.361501 0.923102 0.049851 -2.019193 0.337760 9.321195 4.082420 -2.597296 30.753515 1.063900 -1.195800 10.013100 -71.350023 -2.508852 33.955957 38.713244 -45.216534 -20.741623 1.035357 0.759737 18.942488 -7.125000 0.000000 0.000000 71.551112 0.457149 31.004371 -40.438381 46.524153 -21.108031 1.950259 -0.497120 10.731798 7.125000 0.000000 0.000000 
10.133531 17.730140 -0.137406 93.559287 -88.556700 -93.367688 -2.097564 2.895883 -10.757319 2.013638 12.341893 30.344151 -10.650444 25.324282 -1.296077 3.197900 -11.008700 -32.309200 1.845596 1.761248 -11.617846 -3.191755 -14.057852 37.367528 6.110944 -18.430551 -5.568361 -0.261400 3.289300 -9.085200 -0.286756 0.819177 0.045118 -1.833751 0.276530 9.314411 3.963108 -2.412196 30.784135 1.049500 -1.129300 10.027500 -71.595151 -2.587627 33.777981 38.597339 -45.149887 -20.651432 1.033111 0.769028 18.943158 -7.125000 0.000000 0.000000 71.299588 0.417925 31.412944 -40.426811 46.526676 -21.082653 1.944045 -0.504613 9.911475 7.125000 0.000000 0.000000 
10.133531 17.729365 -0.137517 93.582376 -88.552574 -93.400169 -2.098907 2.903034 -10.747633 2.014052 12.343084 30.347363 -10.645470 25.315470 -1.294026 3.208300 -11.024900 -32.363900 1.845337 1.760183 -11.610915 -3.193835 -14.059195 37.371677 6.117220 -18.446651 -5.559335 -0.271100 3.349200 -9.252600 -0.270055 0.806688 0.037697 -1.795640 0.269032 9.296326 3.934132 -2.364364 30.792718 1.051100 -1.116200 10.018000 -71.674618 -2.666521 33.755882 38.456996 -45.070989 -20.542428 1.033649 0.774853 18.931553 -7.125000 0.000000 0.000000 71.221665 0.399865 31.256406 -40.445591 46.527859 -21.113849 1.957152 -0.484442 10.639614 7.125000 0.000000 0.000000 
10.133863 17.728923 -0.137627 93.789076 -88.566556 -93.615600 -2.082582 2.902922 -10.740589 2.016912 12.344504 30.351668 -10.651644 25.328721 -1.289536 3.235000 -11.066100 -32.503100 1.864411 1.774582 -11.600547 -3.193140 -14.061118 37.372931 6.127370 -18.472612 -5.566184 -0.280100 3.403900 -9.405200 -0.255055 0.799599 0.034912 -1.775373 0.265688 9.291623 3.906401 -2.317284 30.816686 1.050500 -1.100700 10.025700 -71.726885 -2.747369 33.748773 38.329195 -44.998388 -20.444034 1.033192 0.780632 18.922443 -7.125000 0.000000 0.000000 71.167868 0.368573 31.281423 -40.461870 46.535811 -21.125323 1.956754 -0.482388 10.596445 7.125000 0.000000 0.000000 
10.134416 17.728812 -0.137627 94.122199 -88.581647 -93.953740 -2.065544 2.903024 -10.738955 2.019644 12.344880 30.352717 -10.659888 25.346613 -1.280619 3.266600 -11.114700 -32.667600 1.884149 1.797638 -11.591778 -3.191798 -14.062999 37.373406 6.136013 -18.494500 -5.576480 -0.286200 3.440200 -9.506900 -0.244441 0.791762 0.036473 -1.766688 0.262007 9.300948 3.873871 -2.275350 30.854856 1.042300 -1.083800 10.049600 -71.757719 -2.825835 33.728625 38.220567 -44.935133 -20.362718 1.032402 0.785564 18.919451 -7.125000 0.000000 0.000000 71.128876 0.363569 31.317064 -40.472051 46.538441 -21.126481 1.952588 -0.485117 10.536081 7.125000 0.000000 0.000000 
10.135301 17.728923 -0.137738 94.533371 -88.593342 -94.365091 -2.051579 2.898870 -10.743234 2.021529 12.344862 30.353599 -10.666993 25.360504 -1.278467 3.287900 -11.147100 -32.777700 1.900054 1.827841 -11.587035 -3.190081 -14.064363 37.373209 6.142929 -18.511927 -5.588311 -0.287800 3.450300 -9.535100 -0.237190 0.778703 0.038954 -1.761679 0.254754 9.313184 3.821365 -2.241382 30.906323 1.018000 -1.067200 10.087900 -71.772324 -2.884995 33.683188 38.142216 -44.888425 -20.307563 1.031584 0.788942 18.924292 -7.125000 0.000000 0.000000 71.103407 0.381522 31.372141 -40.472279 46.534192 -21.114443 1.945212 -0.492137 10.461904 7.125000 0.000000 0.000000 
10.136518 17.729254 -0.138070 94.841697 -88.600353 -94.668723 -2.041356 2.889047 -10.751147 2.021959 12.344130 30.352997 -10.670895 25.366863 -1.282079 3.291100 -11.152000 -32.794100 1.911471 1.862713 -11.586904 -3.188772 -14.065846 37.374696 6.148189 -18.524670 -5.604454 -0.285900 3.438800 -9.503000 -0.229741 0.753477 0.040309 -1.747655 0.239970 9.320811 3.746763 -2.211090 30.957889 0.978300 -1.050300 10.130400 -71.780096 -2.914290 33.606529 38.102486 -44.863484 -20.284429 1.030845 0.790514 18.930904 -7.125000 0.000000 0.000000 71.082337 0.414370 31.453353 -40.465594 46.525598 -21.092948 1.935963 -0.501845 10.384279 7.125000 0.000000 0.000000 
10.137957 17.729586 -0.138402 94.862955 -88.600358 -94.682047 -2.036446 2.873978 -10.759965 2.020677 12.342887 30.350911 -10.668231 25.359368 -1.287838 3.277400 -11.131100 -32.723100 1.916324 1.893085 -11.591579 -3.188395 -14.067062 37.378404 6.151290 -18.531474 -5.623110 -0.281800 3.414100 -9.433900 -0.214743 0.706980 0.040446 -1.701494 0.211805 9.324445 3.652240 -2.170569 31.006240 0.930500 -1.029700 10.173400 -71.812936 -2.919651 33.485971 38.099256 -44.859064 -20.290222 1.030247 0.790904 18.935884 -7.125000 0.000000 0.000000 71.037124 0.455834 31.573494 -40.453119 46.513759 -21.065627 1.927171 -0.511315 10.311281 7.125000 0.000000 0.000000 
10.139284 17.729808 -0.138734 94.523479 -88.595413 -94.336106 -2.036421 2.858809 -10.766971 2.018655 12.341829 30.348226 -10.661148 25.344141 -1.290042 3.254300 -11.095700 -32.603400 1.915462 1.905222 -11.597984 -3.188962 -14.067602 37.383600 6.148275 -18.523225 -5.637227 -0.275600 3.376700 -9.329300 -0.191673 0.643847 0.039704 -1.626815 0.173464 9.325297 3.555589 -2.118312 31.046180 0.887200 -1.006800 10.209900 -71.877239 -2.920632 33.340004 38.106454 -44.860083 -20.302995 1.029651 0.791414 18.936380 -7.125000 0.000000 0.000000 70.964284 0.491364 31.715895 -40.441371 46.503172 -21.040145 1.920242 -0.518455 10.255851 7.125000 0.000000 0.000000 
10.140169 17.729918 -0.138844 93.903863 -88.586808 -93.716696 -2.041546 2.848900 -10.768477 2.016679 12.341589 30.346166 -10.652708 25.327814 -1.285961 3.230600 -11.059200 -32.480000 1.909834 1.900484 -11.598617 -3.190006 -14.067482 37.388636 6.139028 -18.499854 -5.643265 -0.267000 3.324200 -9.182800 -0.166416 0.578183 0.039470 -1.544877 0.134007 9.325854 3.481400 -2.063684 31.080775 0.860300 -0.985800 10.239900 -71.948267 -2.931353 33.204649 38.107639 -44.857098 -20.309224 1.029023 0.792534 18.920623 -7.125000 0.000000 0.000000 70.881975 0.510140 31.850905 -40.439647 46.498918 -21.025476 1.915191 -0.523011 10.220914 7.125000 0.000000 0.000000 
